<?xml version="1.0" encoding="UTF-8" standalone="no"?><svg xmlns="http://www.w3.org/2000/svg" xmlns:xlink="http://www.w3.org/1999/xlink" contentScriptType="application/ecmascript" contentStyleType="text/css" height="932px" preserveAspectRatio="none" style="width:598px;height:932px;background:#FFFFFF;" version="1.1" viewBox="0 0 598 932" width="598px" zoomAndPan="magnify"><defs><filter height="300%" id="f8b1ifbkvj4rm" width="300%" x="-1" y="-1"><feGaussianBlur result="blurOut" stdDeviation="2.0"/><feColorMatrix in="blurOut" result="blurOut2" type="matrix" values="0 0 0 0 0 0 0 0 0 0 0 0 0 0 0 0 0 0 .4 0"/><feOffset dx="4.0" dy="4.0" in="blurOut2" result="blurOut3"/><feBlend in="SourceGraphic" in2="blurOut3" mode="normal"/></filter></defs><g><rect fill="#FFFFFF" filter="url(#f8b1ifbkvj4rm)" height="636.6479" style="stroke:#A80036;stroke-width:1.0;" width="10" x="61" y="80.1201"/><rect fill="#FFFFFF" filter="url(#f8b1ifbkvj4rm)" height="127.0176" style="stroke:#A80036;stroke-width:1.0;" width="10" x="205" y="716.7681"/><rect fill="#FFFFFF" filter="url(#f8b1ifbkvj4rm)" height="472.876" style="stroke:#A80036;stroke-width:1.0;" width="10" x="302" y="103.8745"/><rect fill="#FFFFFF" filter="url(#f8b1ifbkvj4rm)" height="31.7544" style="stroke:#A80036;stroke-width:1.0;" width="10" x="443" y="653.2593"/><rect fill="#FFFFFF" filter="url(#f8b1ifbkvj4rm)" height="104.2632" style="stroke:#A80036;stroke-width:1.0;" width="10" x="443" y="748.5225"/><rect fill="#FFFFFF" filter="url(#f8b1ifbkvj4rm)" height="31.7544" style="stroke:#A80036;stroke-width:1.0;" width="10" x="568" y="780.2769"/><rect fill="#FFFFFF" filter="url(#f8b1ifbkvj4rm)" height="318.8584" style="stroke:#000000;stroke-width:2.0;" width="438" x="10" y="227.1377"/><rect fill="#FFFFFF" height="143.0405" style="stroke:none;stroke-width:1.0;" width="438" x="10" y="309.4238"/><rect fill="#FFFFFF" height="93.5317" style="stroke:none;stroke-width:1.0;" width="438" x="10" y="452.4644"/><line style="stroke:#A80036;stroke-width:1.0;stroke-dasharray:5.0,5.0;" x1="66" x2="66" y1="70.1201" y2="861.7856"/><line style="stroke:#A80036;stroke-width:1.0;stroke-dasharray:5.0,5.0;" x1="209.5" x2="209.5" y1="70.1201" y2="861.7856"/><line style="stroke:#A80036;stroke-width:1.0;stroke-dasharray:5.0,5.0;" x1="306.5" x2="306.5" y1="70.1201" y2="861.7856"/><line style="stroke:#A80036;stroke-width:1.0;stroke-dasharray:5.0,5.0;" x1="447.5" x2="447.5" y1="70.1201" y2="861.7856"/><line style="stroke:#A80036;stroke-width:1.0;stroke-dasharray:5.0,5.0;" x1="572.5" x2="572.5" y1="70.1201" y2="861.7856"/><rect fill="#FEFECE" filter="url(#f8b1ifbkvj4rm)" height="33.1201" style="stroke:#A80036;stroke-width:1.5;" width="88" x="20" y="32"/><text fill="#000000" font-family="sans-serif" font-size="14" lengthAdjust="spacing" textLength="74" x="27" y="55.0439">MainActivity</text><rect fill="#FEFECE" filter="url(#f8b1ifbkvj4rm)" height="33.1201" style="stroke:#A80036;stroke-width:1.5;" width="88" x="20" y="860.7856"/><text fill="#000000" font-family="sans-serif" font-size="14" lengthAdjust="spacing" textLength="74" x="27" y="883.8296">MainActivity</text><rect fill="#FEFECE" filter="url(#f8b1ifbkvj4rm)" height="33.1201" style="stroke:#A80036;stroke-width:1.5;" width="95" x="160.5" y="32"/><text fill="#000000" font-family="sans-serif" font-size="14" lengthAdjust="spacing" textLength="81" x="167.5" y="55.0439">ScoreActivity</text><rect fill="#FEFECE" filter="url(#f8b1ifbkvj4rm)" height="33.1201" style="stroke:#A80036;stroke-width:1.5;" width="95" x="160.5" y="860.7856"/><text fill="#000000" font-family="sans-serif" font-size="14" lengthAdjust="spacing" textLength="81" x="167.5" y="883.8296">ScoreActivity</text><text fill="#000000" font-family="sans-serif" font-size="14" lengthAdjust="spacing" textLength="69" x="269.5" y="67.0439">SnakeView</text><path d="M286.5,23 L286.5,47 M286.5,35 L303.5,35 " fill="none" filter="url(#f8b1ifbkvj4rm)" style="stroke:#A80036;stroke-width:2.0;"/><ellipse cx="315.5" cy="35" fill="#FEFECE" filter="url(#f8b1ifbkvj4rm)" rx="12" ry="12" style="stroke:#A80036;stroke-width:2.0;"/><text fill="#000000" font-family="sans-serif" font-size="14" lengthAdjust="spacing" textLength="69" x="269.5" y="876.8296">SnakeView</text><path d="M286.5,883.9058 L286.5,907.9058 M286.5,895.9058 L303.5,895.9058 " fill="none" filter="url(#f8b1ifbkvj4rm)" style="stroke:#A80036;stroke-width:2.0;"/><ellipse cx="315.5" cy="895.9058" fill="#FEFECE" filter="url(#f8b1ifbkvj4rm)" rx="12" ry="12" style="stroke:#A80036;stroke-width:2.0;"/><rect fill="#FEFECE" filter="url(#f8b1ifbkvj4rm)" height="33.1201" style="stroke:#A80036;stroke-width:1.5;" width="117" x="387.5" y="32"/><text fill="#000000" font-family="sans-serif" font-size="14" lengthAdjust="spacing" textLength="103" x="394.5" y="55.0439">SQLiteDBHelper</text><rect fill="#FEFECE" filter="url(#f8b1ifbkvj4rm)" height="33.1201" style="stroke:#A80036;stroke-width:1.5;" width="117" x="387.5" y="860.7856"/><text fill="#000000" font-family="sans-serif" font-size="14" lengthAdjust="spacing" textLength="103" x="394.5" y="883.8296">SQLiteDBHelper</text><text fill="#000000" font-family="sans-serif" font-size="14" lengthAdjust="spacing" textLength="43" x="548.5" y="67.0439">SQLite</text><path d="M555,15 C555,5 573,5 573,5 C573,5 591,5 591,15 L591,41 C591,51 573,51 573,51 C573,51 555,51 555,41 L555,15 " fill="#FEFECE" filter="url(#f8b1ifbkvj4rm)" style="stroke:#000000;stroke-width:1.5;"/><path d="M555,15 C555,25 573,25 573,25 C573,25 591,25 591,15 " fill="none" style="stroke:#000000;stroke-width:1.5;"/><text fill="#000000" font-family="sans-serif" font-size="14" lengthAdjust="spacing" textLength="43" x="548.5" y="876.8296">SQLite</text><path d="M555,889.9058 C555,879.9058 573,879.9058 573,879.9058 C573,879.9058 591,879.9058 591,889.9058 L591,915.9058 C591,925.9058 573,925.9058 573,925.9058 C573,925.9058 555,925.9058 555,915.9058 L555,889.9058 " fill="#FEFECE" filter="url(#f8b1ifbkvj4rm)" style="stroke:#000000;stroke-width:1.5;"/><path d="M555,889.9058 C555,899.9058 573,899.9058 573,899.9058 C573,899.9058 591,899.9058 591,889.9058 " fill="none" style="stroke:#000000;stroke-width:1.5;"/><rect fill="#FFFFFF" filter="url(#f8b1ifbkvj4rm)" height="636.6479" style="stroke:#A80036;stroke-width:1.0;" width="10" x="61" y="80.1201"/><rect fill="#FFFFFF" filter="url(#f8b1ifbkvj4rm)" height="127.0176" style="stroke:#A80036;stroke-width:1.0;" width="10" x="205" y="716.7681"/><rect fill="#FFFFFF" filter="url(#f8b1ifbkvj4rm)" height="472.876" style="stroke:#A80036;stroke-width:1.0;" width="10" x="302" y="103.8745"/><rect fill="#FFFFFF" filter="url(#f8b1ifbkvj4rm)" height="31.7544" style="stroke:#A80036;stroke-width:1.0;" width="10" x="443" y="653.2593"/><rect fill="#FFFFFF" filter="url(#f8b1ifbkvj4rm)" height="104.2632" style="stroke:#A80036;stroke-width:1.0;" width="10" x="443" y="748.5225"/><rect fill="#FFFFFF" filter="url(#f8b1ifbkvj4rm)" height="31.7544" style="stroke:#A80036;stroke-width:1.0;" width="10" x="568" y="780.2769"/><polygon fill="#A80036" points="290,99.8745,300,103.8745,290,107.8745,294,103.8745" style="stroke:#A80036;stroke-width:1.0;"/><line style="stroke:#A80036;stroke-width:1.0;" x1="71" x2="296" y1="103.8745" y2="103.8745"/><text fill="#000000" font-family="sans-serif" font-size="13" lengthAdjust="spacing" textLength="52" x="78" y="99.0181">游戏开始</text><line style="stroke:#A80036;stroke-width:1.0;" x1="312" x2="354" y1="135.6289" y2="135.6289"/><line style="stroke:#A80036;stroke-width:1.0;" x1="354" x2="354" y1="135.6289" y2="148.6289"/><line style="stroke:#A80036;stroke-width:1.0;" x1="313" x2="354" y1="148.6289" y2="148.6289"/><polygon fill="#A80036" points="323,144.6289,313,148.6289,323,152.6289,319,148.6289" style="stroke:#A80036;stroke-width:1.0;"/><text fill="#000000" font-family="sans-serif" font-size="13" lengthAdjust="spacing" textLength="78" x="319" y="130.7725">启动背景音乐</text><polygon fill="#A80036" points="82,176.3833,72,180.3833,82,184.3833,78,180.3833" style="stroke:#A80036;stroke-width:1.0;"/><line style="stroke:#A80036;stroke-width:1.0;" x1="76" x2="301" y1="180.3833" y2="180.3833"/><text fill="#000000" font-family="sans-serif" font-size="13" lengthAdjust="spacing" textLength="130" x="88" y="175.5269">绘制贪吃蛇视图并显示</text><polygon fill="#A80036" points="290,208.1377,300,212.1377,290,216.1377,294,212.1377" style="stroke:#A80036;stroke-width:1.0;"/><line style="stroke:#A80036;stroke-width:1.0;" x1="71" x2="296" y1="212.1377" y2="212.1377"/><text fill="#000000" font-family="sans-serif" font-size="13" lengthAdjust="spacing" textLength="65" x="78" y="207.2813">贪吃蛇移动</text><path d="M10,227.1377 L71,227.1377 L71,236.1377 L61,246.1377 L10,246.1377 L10,227.1377 " fill="#EEEEEE" style="stroke:#000000;stroke-width:1.0;"/><rect fill="none" height="318.8584" style="stroke:#000000;stroke-width:2.0;" width="438" x="10" y="227.1377"/><text fill="#000000" font-family="sans-serif" font-size="13" font-weight="bold" lengthAdjust="spacing" textLength="16" x="25" y="243.0356">alt</text><text fill="#000000" font-family="sans-serif" font-size="11" font-weight="bold" lengthAdjust="spacing" textLength="52" x="86" y="241.7437">[移动按钮]</text><line style="stroke:#A80036;stroke-width:1.0;" x1="312" x2="354" y1="288.4238" y2="288.4238"/><line style="stroke:#A80036;stroke-width:1.0;" x1="354" x2="354" y1="288.4238" y2="301.4238"/><line style="stroke:#A80036;stroke-width:1.0;" x1="313" x2="354" y1="301.4238" y2="301.4238"/><polygon fill="#A80036" points="323,297.4238,313,301.4238,323,305.4238,319,301.4238" style="stroke:#A80036;stroke-width:1.0;"/><text fill="#000000" font-family="sans-serif" font-size="13" lengthAdjust="spacing" textLength="91" x="319" y="265.813">更新贪吃蛇方向</text><text fill="#000000" font-family="sans-serif" font-size="13" lengthAdjust="spacing" textLength="91" x="319" y="283.5674">与蛇身坐标数组</text><line style="stroke:#000000;stroke-width:1.0;stroke-dasharray:2.0,2.0;" x1="10" x2="448" y1="310.4238" y2="310.4238"/><text fill="#000000" font-family="sans-serif" font-size="11" font-weight="bold" lengthAdjust="spacing" textLength="52" x="15" y="323.0298">[暂停按钮]</text><polygon fill="#A80036" points="290,346.2012,300,350.2012,290,354.2012,294,350.2012" style="stroke:#A80036;stroke-width:1.0;"/><line style="stroke:#A80036;stroke-width:1.0;" x1="71" x2="296" y1="350.2012" y2="350.2012"/><text fill="#000000" font-family="sans-serif" font-size="13" lengthAdjust="spacing" textLength="52" x="78" y="345.3447">游戏停止</text><line style="stroke:#A80036;stroke-width:1.0;" x1="312" x2="354" y1="399.71" y2="399.71"/><line style="stroke:#A80036;stroke-width:1.0;" x1="354" x2="354" y1="399.71" y2="412.71"/><line style="stroke:#A80036;stroke-width:1.0;" x1="313" x2="354" y1="412.71" y2="412.71"/><polygon fill="#A80036" points="323,408.71,313,412.71,323,416.71,319,412.71" style="stroke:#A80036;stroke-width:1.0;"/><text fill="#000000" font-family="sans-serif" font-size="13" lengthAdjust="spacing" textLength="91" x="319" y="377.0991">保存游戏数据，</text><text fill="#000000" font-family="sans-serif" font-size="13" lengthAdjust="spacing" textLength="78" x="319" y="394.8535">进入暂停状态</text><polygon fill="#A80036" points="290,440.4644,300,444.4644,290,448.4644,294,444.4644" style="stroke:#A80036;stroke-width:1.0;"/><line style="stroke:#A80036;stroke-width:1.0;" x1="71" x2="296" y1="444.4644" y2="444.4644"/><text fill="#000000" font-family="sans-serif" font-size="13" lengthAdjust="spacing" textLength="117" x="78" y="439.6079">继续按钮，游戏继续</text><line style="stroke:#000000;stroke-width:1.0;stroke-dasharray:2.0,2.0;" x1="10" x2="448" y1="453.4644" y2="453.4644"/><text fill="#000000" font-family="sans-serif" font-size="11" font-weight="bold" lengthAdjust="spacing" textLength="52" x="15" y="466.0703">[吃到食物]</text><line style="stroke:#A80036;stroke-width:1.0;" x1="312" x2="354" y1="493.2417" y2="493.2417"/><line style="stroke:#A80036;stroke-width:1.0;" x1="354" x2="354" y1="493.2417" y2="506.2417"/><line style="stroke:#A80036;stroke-width:1.0;" x1="313" x2="354" y1="506.2417" y2="506.2417"/><polygon fill="#A80036" points="323,502.2417,313,506.2417,323,510.2417,319,506.2417" style="stroke:#A80036;stroke-width:1.0;"/><text fill="#000000" font-family="sans-serif" font-size="13" lengthAdjust="spacing" textLength="117" x="319" y="488.3853">更新贪吃蛇数组信息</text><polygon fill="#A80036" points="82,533.9961,72,537.9961,82,541.9961,78,537.9961" style="stroke:#A80036;stroke-width:1.0;"/><line style="stroke:#A80036;stroke-width:1.0;" x1="76" x2="301" y1="537.9961" y2="537.9961"/><text fill="#000000" font-family="sans-serif" font-size="13" lengthAdjust="spacing" textLength="138" x="88" y="533.1396">更新游戏分数, 发出音效</text><polygon fill="#A80036" points="82,572.7505,72,576.7505,82,580.7505,78,576.7505" style="stroke:#A80036;stroke-width:1.0;"/><line style="stroke:#A80036;stroke-width:1.0;" x1="76" x2="306" y1="576.7505" y2="576.7505"/><text fill="#000000" font-family="sans-serif" font-size="13" lengthAdjust="spacing" textLength="156" x="88" y="571.894">碰到墙壁或自身，界面暂停</text><line style="stroke:#A80036;stroke-width:1.0;" x1="71" x2="113" y1="608.5049" y2="608.5049"/><line style="stroke:#A80036;stroke-width:1.0;" x1="113" x2="113" y1="608.5049" y2="621.5049"/><line style="stroke:#A80036;stroke-width:1.0;" x1="72" x2="113" y1="621.5049" y2="621.5049"/><polygon fill="#A80036" points="82,617.5049,72,621.5049,82,625.5049,78,621.5049" style="stroke:#A80036;stroke-width:1.0;"/><text fill="#000000" font-family="sans-serif" font-size="13" lengthAdjust="spacing" textLength="104" x="78" y="603.6484">弹出用户名提示框</text><polygon fill="#A80036" points="431,649.2593,441,653.2593,431,657.2593,435,653.2593" style="stroke:#A80036;stroke-width:1.0;"/><line style="stroke:#A80036;stroke-width:1.0;" x1="71" x2="437" y1="653.2593" y2="653.2593"/><text fill="#000000" font-family="sans-serif" font-size="13" lengthAdjust="spacing" textLength="78" x="78" y="648.4028">记录游戏数据</text><polygon fill="#A80036" points="561,681.0137,571,685.0137,561,689.0137,565,685.0137" style="stroke:#A80036;stroke-width:1.0;"/><line style="stroke:#A80036;stroke-width:1.0;" x1="448" x2="567" y1="685.0137" y2="685.0137"/><text fill="#000000" font-family="sans-serif" font-size="13" lengthAdjust="spacing" textLength="78" x="455" y="680.1572">更新游戏数据</text><polygon fill="#A80036" points="193,712.7681,203,716.7681,193,720.7681,197,716.7681" style="stroke:#A80036;stroke-width:1.0;"/><line style="stroke:#A80036;stroke-width:1.0;" x1="66" x2="199" y1="716.7681" y2="716.7681"/><text fill="#000000" font-family="sans-serif" font-size="13" lengthAdjust="spacing" textLength="115" x="73" y="711.9116">点击 TOP TEN 按钮</text><polygon fill="#A80036" points="431,744.5225,441,748.5225,431,752.5225,435,748.5225" style="stroke:#A80036;stroke-width:1.0;"/><line style="stroke:#A80036;stroke-width:1.0;" x1="215" x2="437" y1="748.5225" y2="748.5225"/><text fill="#000000" font-family="sans-serif" font-size="13" lengthAdjust="spacing" textLength="91" x="222" y="743.666">获取前十名数据</text><polygon fill="#A80036" points="556,776.2769,566,780.2769,556,784.2769,560,780.2769" style="stroke:#A80036;stroke-width:1.0;"/><line style="stroke:#A80036;stroke-width:1.0;" x1="453" x2="562" y1="780.2769" y2="780.2769"/><text fill="#000000" font-family="sans-serif" font-size="13" lengthAdjust="spacing" textLength="52" x="460" y="775.4204">查找数据</text><polygon fill="#A80036" points="464,808.0313,454,812.0313,464,816.0313,460,812.0313" style="stroke:#A80036;stroke-width:1.0;"/><line style="stroke:#A80036;stroke-width:1.0;" x1="458" x2="572" y1="812.0313" y2="812.0313"/><text fill="#000000" font-family="sans-serif" font-size="13" lengthAdjust="spacing" textLength="91" x="470" y="807.1748">返回前十名数据</text><polygon fill="#A80036" points="221,839.7856,211,843.7856,221,847.7856,217,843.7856" style="stroke:#A80036;stroke-width:1.0;"/><line style="stroke:#A80036;stroke-width:1.0;" x1="215" x2="442" y1="843.7856" y2="843.7856"/><text fill="#000000" font-family="sans-serif" font-size="13" lengthAdjust="spacing" textLength="143" x="227" y="838.9292">显示前十名用户名及分数</text><!--MD5=[760745d2bd1517e0eb919cd51901a72e]
@startuml detail
participant MainActivity as MainActivity
participant ScoreActivity as ScoreActivity
boundary SnakeView as SnakeView
participant SQLiteDBHelper as SQLiteDBHelper
database SQLite as SQLite
activate MainActivity
MainActivity -> SnakeView: 游戏开始
activate SnakeView
SnakeView -> SnakeView: 启动背景音乐
    SnakeView -> MainActivity: 绘制贪吃蛇视图并显示
    MainActivity -> SnakeView: 贪吃蛇移动
    alt 移动按钮
        SnakeView -> SnakeView: 更新贪吃蛇方向\n与蛇身坐标数组
    else 暂停按钮
        MainActivity -> SnakeView: 游戏停止
        SnakeView -> SnakeView: 保存游戏数据，\n进入暂停状态
        MainActivity -> SnakeView: 继续按钮，游戏继续
    else 吃到食物
        SnakeView -> SnakeView: 更新贪吃蛇数组信息
        SnakeView -> MainActivity: 更新游戏分数, 发出音效
    end
SnakeView -> MainActivity: 碰到墙壁或自身，界面暂停
deactivate SnakeView
MainActivity -> MainActivity: 弹出用户名提示框
MainActivity -> SQLiteDBHelper: 记录游戏数据
activate SQLiteDBHelper
SQLiteDBHelper -> SQLite: 更新游戏数据
deactivate SQLiteDBHelper
MainActivity -> ScoreActivity: 点击 TOP TEN 按钮
deactivate MainActivity
activate ScoreActivity
ScoreActivity -> SQLiteDBHelper: 获取前十名数据
activate SQLiteDBHelper
SQLiteDBHelper -> SQLite: 查找数据
activate SQLite
SQLite -> SQLiteDBHelper: 返回前十名数据
deactivate SQLite
SQLiteDBHelper -> ScoreActivity: 显示前十名用户名及分数
deactivate ScoreActivity
@enduml

PlantUML version 1.2021.7(Sun May 23 20:40:07 CST 2021)
(GPL source distribution)
Java Runtime: Java(TM) SE Runtime Environment
JVM: Java HotSpot(TM) 64-Bit Server VM
Default Encoding: GBK
Language: zh
Country: CN
--></g></svg>